<?xml version="1.0" encoding="utf-8"?>
<!-- Generator: Adobe Illustrator 16.0.0, SVG Export Plug-In . SVG Version: 6.00 Build 0)  -->
<!DOCTYPE svg PUBLIC "-//W3C//DTD SVG 1.1//EN" "http://www.w3.org/Graphics/SVG/1.1/DTD/svg11.dtd">
<svg version="1.1" id="Layer_1" xmlns="http://www.w3.org/2000/svg" xmlns:xlink="http://www.w3.org/1999/xlink" x="0px" y="0px"
	 width="389.332px" height="150px" viewBox="0 0 389.332 150" enable-background="new 0 0 389.332 150" xml:space="preserve">
<g>
	<path fill="#FF0000" d="M150,124.574C150,138.517,137.321,150,121.809,150H26.731C11.22,150,0,138.517,0,124.574V25.532
		C0,11.587,11.22,0,26.731,0h95.077C137.321,0,150,11.587,150,25.532V124.574z"/>
	<rect x="80" fill="#FFCC66" width="240" height="149"/>
	<rect x="80" y="77" fill="#FAAF3B" width="240" height="73"/>
	<polygon fill="#FDDFB1" points="389.332,75.053 372.02,93.608 320,149.82 320,0.285 372.02,56.497 	"/>
	<polygon fill="#989898" points="389.092,75.053 372,93.608 372,56.497 	"/>
	<rect x="51" fill="#989898" width="49" height="150"/>
	<g id="Pencil__x26__Co._1_">
		<path fill="#FFFFCC" d="M112.931,102.438v8.09h-3.11V88.9h6.813c1.459,0,2.729,0.158,3.807,0.473
			c1.079,0.32,1.973,0.77,2.681,1.353c0.709,0.583,1.24,1.288,1.587,2.113c0.349,0.825,0.523,1.745,0.523,2.761
			c0,1.007-0.188,1.928-0.563,2.762c-0.376,0.836-0.927,1.557-1.652,2.158c-0.724,0.604-1.624,1.075-2.694,1.412
			c-1.076,0.337-2.306,0.506-3.688,0.506H112.931z M112.931,100.112h3.703c0.891,0,1.677-0.11,2.357-0.331
			c0.684-0.223,1.253-0.531,1.714-0.928c0.464-0.398,0.812-0.873,1.047-1.427c0.238-0.553,0.355-1.163,0.355-1.827
			c0-1.377-0.453-2.454-1.361-3.229c-0.907-0.775-2.277-1.162-4.112-1.162h-3.703V100.112z"/>
		<path fill="#FFFFCC" d="M143.396,88.9v2.384h-11.078v7.183h8.968v2.296h-8.968v7.379h11.078v2.386h-14.219V88.9H143.396z"/>
		<path fill="#FFFFCC" d="M150.118,88.998c0.133,0.064,0.286,0.197,0.459,0.399l13.364,16.3c-0.032-0.262-0.054-0.516-0.065-0.762
			c-0.01-0.247-0.016-0.484-0.016-0.718V88.9h2.737v21.627h-1.578c-0.247,0-0.453-0.039-0.619-0.121
			c-0.166-0.08-0.331-0.217-0.491-0.408l-13.349-16.285c0.021,0.252,0.037,0.5,0.049,0.741c0.009,0.241,0.015,0.462,0.015,0.663
			v15.41h-2.737V88.9h1.611C149.778,88.9,149.983,88.932,150.118,88.998z"/>
		<path fill="#FFFFCC" d="M188.499,106.061c0.171,0,0.326,0.064,0.466,0.195l1.224,1.253c-0.945,1.026-2.09,1.825-3.438,2.399
			c-1.349,0.573-2.971,0.859-4.872,0.859c-1.664,0-3.172-0.268-4.523-0.807c-1.354-0.539-2.507-1.293-3.464-2.264
			c-0.953-0.971-1.695-2.137-2.221-3.494c-0.527-1.359-0.789-2.852-0.789-4.482c0-1.63,0.282-3.123,0.844-4.482
			c0.565-1.358,1.357-2.525,2.376-3.502c1.021-0.976,2.244-1.732,3.663-2.271c1.425-0.54,2.992-0.808,4.709-0.808
			c1.697,0,3.161,0.248,4.389,0.739c1.23,0.493,2.322,1.161,3.277,2.007l-1.014,1.343c-0.075,0.102-0.161,0.186-0.258,0.25
			c-0.097,0.065-0.236,0.098-0.417,0.098c-0.141,0-0.288-0.047-0.445-0.143c-0.154-0.095-0.341-0.214-0.555-0.356
			c-0.216-0.139-0.467-0.29-0.757-0.451c-0.289-0.16-0.633-0.313-1.03-0.453c-0.398-0.141-0.859-0.26-1.384-0.354
			c-0.527-0.097-1.134-0.145-1.821-0.145c-1.233,0-2.365,0.199-3.388,0.596c-1.026,0.398-1.909,0.964-2.649,1.697
			c-0.742,0.736-1.317,1.631-1.732,2.687c-0.412,1.058-0.617,2.24-0.617,3.548c0,1.348,0.205,2.55,0.617,3.607
			c0.415,1.055,0.978,1.949,1.691,2.678c0.714,0.73,1.558,1.287,2.536,1.668c0.978,0.382,2.028,0.574,3.156,0.574
			c0.688,0,1.305-0.039,1.852-0.113c0.548-0.076,1.055-0.193,1.522-0.354c0.468-0.164,0.902-0.365,1.304-0.613
			c0.4-0.246,0.807-0.541,1.216-0.883C188.15,106.135,188.326,106.061,188.499,106.061z"/>
		<path fill="#FFFFCC" d="M197.998,110.527h-3.124V88.9h3.124V110.527z"/>
		<path fill="#FFFFCC" d="M207.307,108.066h9.982v2.461h-13.106V88.9h3.124V108.066z"/>
		<path fill="#FFFFCC" d="M234.775,88.658c0.848,0,1.621,0.129,2.319,0.386c0.696,0.255,1.302,0.595,1.812,1.019
			c0.51,0.421,0.911,0.912,1.207,1.471c0.295,0.559,0.465,1.139,0.508,1.744l-1.787,0.33c-0.055,0.011-0.102,0.016-0.146,0.016
			c-0.139,0-0.271-0.034-0.395-0.105c-0.124-0.069-0.213-0.197-0.266-0.377c-0.075-0.262-0.196-0.534-0.363-0.814
			c-0.167-0.282-0.381-0.539-0.643-0.771c-0.264-0.229-0.58-0.422-0.949-0.573c-0.371-0.149-0.804-0.226-1.298-0.226
			c-0.537,0-1.019,0.08-1.449,0.241s-0.798,0.386-1.104,0.671c-0.306,0.288-0.541,0.625-0.707,1.012
			c-0.167,0.389-0.249,0.807-0.249,1.26c0,0.353,0.044,0.689,0.137,1.012c0.089,0.322,0.228,0.646,0.409,0.975
			c0.183,0.325,0.418,0.664,0.708,1.01c0.29,0.347,0.639,0.713,1.048,1.094l6.633,6.326c0.409-0.675,0.733-1.383,0.976-2.121
			c0.241-0.74,0.406-1.482,0.492-2.227c0.02-0.191,0.084-0.343,0.19-0.454c0.107-0.109,0.259-0.165,0.453-0.165h1.769
			c-0.021,1.158-0.218,2.294-0.596,3.412c-0.374,1.117-0.916,2.163-1.626,3.138l4.832,4.589h-2.771
			c-0.311,0-0.562-0.035-0.755-0.105c-0.192-0.07-0.407-0.217-0.646-0.439l-2.318-2.188c-1.007,0.915-2.171,1.641-3.485,2.172
			c-1.315,0.535-2.761,0.801-4.34,0.801c-0.858,0-1.701-0.135-2.527-0.406c-0.827-0.273-1.565-0.668-2.214-1.185
			c-0.651-0.518-1.174-1.149-1.571-1.895s-0.595-1.585-0.595-2.521c0-0.703,0.125-1.37,0.378-2c0.252-0.629,0.601-1.21,1.048-1.743
			c0.445-0.534,0.973-1.011,1.585-1.433c0.611-0.424,1.282-0.785,2.012-1.088c-0.654-0.774-1.138-1.529-1.448-2.264
			c-0.313-0.734-0.467-1.494-0.467-2.279c0-0.732,0.141-1.424,0.427-2.067c0.285-0.643,0.695-1.204,1.229-1.683
			c0.538-0.479,1.191-0.854,1.958-1.133C232.958,88.797,233.82,88.658,234.775,88.658z M228.382,104.551
			c0,0.652,0.127,1.229,0.386,1.728c0.26,0.497,0.597,0.919,1.016,1.259c0.418,0.344,0.896,0.602,1.434,0.779
			c0.536,0.175,1.084,0.263,1.642,0.263c1.203,0,2.281-0.205,3.237-0.616c0.956-0.414,1.797-0.961,2.528-1.646l-6.812-6.443
			c-1.138,0.571-1.994,1.259-2.567,2.059C228.669,102.732,228.382,103.605,228.382,104.551z"/>
		<path fill="#FFFFCC" d="M272.068,106.061c0.173,0,0.327,0.064,0.467,0.195l1.224,1.253c-0.943,1.026-2.092,1.825-3.438,2.399
			c-1.346,0.573-2.971,0.859-4.87,0.859c-1.663,0-3.173-0.268-4.524-0.807c-1.354-0.539-2.508-1.293-3.462-2.264
			c-0.957-0.971-1.697-2.137-2.223-3.494c-0.525-1.359-0.788-2.852-0.788-4.482c0-1.63,0.281-3.123,0.845-4.482
			c0.563-1.358,1.354-2.525,2.374-3.502c1.021-0.976,2.242-1.732,3.664-2.271c1.422-0.54,2.992-0.808,4.711-0.808
			c1.695,0,3.159,0.248,4.387,0.739c1.229,0.493,2.322,1.161,3.276,2.007l-1.014,1.343c-0.075,0.102-0.161,0.186-0.259,0.25
			c-0.096,0.065-0.235,0.098-0.418,0.098c-0.139,0-0.288-0.047-0.443-0.143c-0.154-0.095-0.339-0.214-0.555-0.356
			c-0.214-0.139-0.467-0.29-0.757-0.451c-0.29-0.16-0.634-0.313-1.031-0.453s-0.857-0.26-1.385-0.354
			c-0.526-0.097-1.132-0.145-1.817-0.145c-1.235,0-2.365,0.199-3.392,0.596c-1.023,0.398-1.908,0.964-2.648,1.697
			c-0.739,0.736-1.318,1.631-1.731,2.687c-0.413,1.058-0.618,2.24-0.618,3.548c0,1.348,0.205,2.55,0.618,3.607
			c0.413,1.055,0.979,1.949,1.692,2.678c0.714,0.73,1.559,1.287,2.535,1.668c0.979,0.382,2.029,0.574,3.156,0.574
			c0.687,0,1.304-0.039,1.853-0.113c0.547-0.076,1.054-0.193,1.521-0.354c0.466-0.164,0.901-0.365,1.303-0.613
			c0.403-0.246,0.809-0.541,1.215-0.883C271.719,106.135,271.896,106.061,272.068,106.061z"/>
		<path fill="#FFFFCC" d="M299.297,99.721c0,1.62-0.273,3.107-0.819,4.459c-0.548,1.354-1.321,2.519-2.319,3.494
			c-0.998,0.977-2.199,1.733-3.6,2.271s-2.948,0.807-4.645,0.807s-3.244-0.269-4.64-0.807c-1.394-0.538-2.591-1.295-3.59-2.271
			c-0.998-0.976-1.771-2.141-2.317-3.494c-0.549-1.352-0.822-2.839-0.822-4.459c0-1.621,0.273-3.107,0.822-4.46
			c0.547-1.354,1.319-2.521,2.317-3.501c0.999-0.982,2.196-1.743,3.59-2.286c1.396-0.545,2.943-0.815,4.64-0.815
			s3.244,0.271,4.645,0.815c1.4,0.543,2.602,1.304,3.6,2.286c0.998,0.979,1.771,2.146,2.319,3.501
			C299.023,96.613,299.297,98.1,299.297,99.721z M296.094,99.721c0-1.329-0.194-2.521-0.579-3.577
			c-0.388-1.056-0.936-1.95-1.643-2.679c-0.709-0.73-1.568-1.291-2.579-1.682c-1.008-0.395-2.134-0.59-3.379-0.59
			c-1.236,0-2.357,0.195-3.366,0.59c-1.009,0.391-1.871,0.951-2.584,1.682c-0.716,0.729-1.266,1.623-1.649,2.679
			c-0.389,1.057-0.582,2.248-0.582,3.577c0,1.328,0.193,2.518,0.582,3.569c0.384,1.051,0.934,1.942,1.649,2.671
			c0.713,0.73,1.575,1.287,2.584,1.676c1.009,0.388,2.13,0.582,3.366,0.582c1.245,0,2.371-0.194,3.379-0.582
			c1.011-0.389,1.87-0.945,2.579-1.676c0.707-0.729,1.255-1.62,1.643-2.671C295.899,102.238,296.094,101.049,296.094,99.721z"/>
		<path fill="#FFFFCC" d="M301.278,108.865c0-0.26,0.05-0.507,0.153-0.738c0.101-0.23,0.242-0.433,0.419-0.604
			c0.177-0.172,0.388-0.307,0.635-0.407c0.248-0.101,0.51-0.151,0.79-0.151c0.277,0,0.54,0.051,0.788,0.151
			c0.247,0.101,0.463,0.235,0.645,0.407c0.184,0.171,0.324,0.373,0.428,0.604c0.1,0.231,0.153,0.479,0.153,0.738
			c0,0.273-0.054,0.523-0.153,0.75c-0.104,0.227-0.244,0.424-0.428,0.594c-0.182,0.172-0.397,0.305-0.645,0.4
			c-0.248,0.097-0.511,0.143-0.788,0.143c-0.28,0-0.542-0.046-0.79-0.143c-0.247-0.096-0.458-0.229-0.635-0.4
			c-0.177-0.17-0.318-0.367-0.419-0.594C301.328,109.389,301.278,109.139,301.278,108.865z"/>
	</g>
</g>
</svg>
