<?xml version="1.0" encoding="utf-8"?>
<!-- Generator: Adobe Illustrator 16.0.0, SVG Export Plug-In . SVG Version: 6.00 Build 0)  -->
<!DOCTYPE svg PUBLIC "-//W3C//DTD SVG 1.1//EN" "http://www.w3.org/Graphics/SVG/1.1/DTD/svg11.dtd">
<svg version="1.1" id="Layer_1" xmlns="http://www.w3.org/2000/svg" xmlns:xlink="http://www.w3.org/1999/xlink" x="0px" y="0px"
	 width="60px" height="60px" viewBox="0 0 60 60" enable-background="new 0 0 60 60" xml:space="preserve">
<g>
	<path fill="#FFFFFF" d="M60,30c0,16.569-13.43,30-30,30S0,46.569,0,30S13.431,0,30,0S60,13.431,60,30"/>
	<path fill="#47609B" d="M30,0C13.435,0,0,13.432,0,30c0,16.57,13.435,30,30,30c16.57,0,30-13.43,30-30C60,13.432,46.57,0,30,0
		 M36.428,30.011h-4.204V45h-6.229V30.011h-2.962v-5.296h2.962v-3.427c0-2.453,1.165-6.288,6.286-6.288l4.615,0.018v5.143h-3.35
		c-0.546,0-1.322,0.271-1.322,1.442v3.112h4.75L36.428,30.011z"/>
</g>
</svg>
