<?xml version="1.0" encoding="utf-8"?>
<!-- Generator: Adobe Illustrator 16.0.0, SVG Export Plug-In . SVG Version: 6.00 Build 0)  -->
<!DOCTYPE svg PUBLIC "-//W3C//DTD SVG 1.1//EN" "http://www.w3.org/Graphics/SVG/1.1/DTD/svg11.dtd">
<svg version="1.1" id="Layer_1" xmlns="http://www.w3.org/2000/svg" xmlns:xlink="http://www.w3.org/1999/xlink" x="0px" y="0px"
	 width="60px" height="60px" viewBox="0 0 60 60" enable-background="new 0 0 60 60" xml:space="preserve">
<g>
	<path fill="#FFFFFF" d="M56.65,30c0,14.719-11.932,26.651-26.65,26.651S3.348,44.719,3.348,30C3.348,15.28,15.281,3.35,30,3.35
		S56.65,15.28,56.65,30"/>
	<path fill="#D97F2E" d="M30,0C13.431,0,0,13.433,0,30c0,16.57,13.431,30,30,30s30-13.43,30-30C60,13.433,46.569,0,30,0
		 M19.041,44.968c-2.199,0-3.981-1.784-3.981-3.985c0-2.2,1.782-3.98,3.981-3.98c2.2,0,3.984,1.78,3.984,3.98
		C23.025,43.184,21.241,44.968,19.041,44.968 M29.034,44.993c0-3.757-1.456-7.288-4.096-9.938c-2.636-2.652-6.144-4.11-9.876-4.11
		v-5.749c10.875,0,19.723,8.882,19.723,19.798H29.034z M39.189,45c0-13.37-10.817-24.251-24.115-24.251V15
		c16.467,0,29.864,13.458,29.864,30H39.189z"/>
</g>
</svg>
