<?xml version="1.0" encoding="utf-8"?>
<!-- Generator: Adobe Illustrator 16.0.0, SVG Export Plug-In . SVG Version: 6.00 Build 0)  -->
<!DOCTYPE svg PUBLIC "-//W3C//DTD SVG 1.1//EN" "http://www.w3.org/Graphics/SVG/1.1/DTD/svg11.dtd">
<svg version="1.1" id="Layer_1" xmlns="http://www.w3.org/2000/svg" xmlns:xlink="http://www.w3.org/1999/xlink" x="0px" y="0px"
	 width="60px" height="60px" viewBox="0 0 60 60" enable-background="new 0 0 60 60" xml:space="preserve">
<g>
	<path fill="#FFFFFF" d="M56.65,30.001C56.65,44.719,44.72,56.65,30,56.65c-14.719,0-26.651-11.932-26.651-26.649
		c0-14.72,11.932-26.65,26.651-26.65C44.72,3.351,56.65,15.281,56.65,30.001"/>
	<path fill="#65A6DC" d="M30,0C13.433,0,0,13.433,0,29.999C0,46.571,13.433,60,30,60c16.566,0,30-13.429,30-30.001
		C60,13.433,46.566,0,30,0 M41.93,23.885c0.013,0.264,0.018,0.528,0.018,0.793c0,8.136-6.191,17.513-17.511,17.513
		c-3.478,0-6.713-1.018-9.436-2.764c0.484,0.055,0.973,0.085,1.469,0.085c2.885,0,5.536-0.982,7.643-2.635
		c-2.693-0.052-4.967-1.83-5.749-4.272c0.376,0.068,0.759,0.109,1.158,0.109c0.563,0,1.106-0.076,1.621-0.215
		c-2.813-0.568-4.937-3.055-4.937-6.037v-0.076c0.832,0.461,1.78,0.736,2.789,0.769c-1.652-1.102-2.738-2.987-2.738-5.122
		c0-1.129,0.305-2.187,0.833-3.096c3.034,3.727,7.572,6.175,12.686,6.431c-0.105-0.45-0.159-0.919-0.159-1.401
		c0-3.398,2.755-6.152,6.156-6.152c1.768,0,3.369,0.747,4.49,1.94c1.402-0.274,2.721-0.787,3.911-1.493
		c-0.462,1.438-1.436,2.643-2.708,3.406c1.246-0.148,2.433-0.48,3.535-0.969C44.176,21.933,43.133,23.017,41.93,23.885"/>
</g>
</svg>
